ffmpeg started on 2026-04-09 at 14:52:56
Report written to "D:\Convert\FFMetrics\reports\psnr_report-6.txt"
Log level: 32
Command line:
ffmpeg -hide_banner -nostdin -r 24000/1001 -i "F:\\Convert\\files\\[DC] Make Heroine ga Oosugiru - 07_Telegram_HEVC(311).mkv" -r 24000/1001 -i "F:\\Convert\\files\\[DC] Make Heroine ga Oosugiru - 07_Telegram.mp4" -lavfi "[0:v]settb=AVTB,setpts=PTS-STARTPTS,format=pix_fmts=yuv420p10le,fps=24000/1001,scale=1920:1080:flags=lanczos:param0=3:out_range=limited:out_color_matrix=bt709:out_chroma_loc=left,setsar=1/1,setdar=(1920/1080)*(1/1),colorspace=format=yuv420p10:range=tv:primaries=bt709:trc=bt709:space=bt709:fast=0[main];[1:v]settb=AVTB,setpts=PTS-STARTPTS,format=pix_fmts=yuv420p,fps=24000/1001,scale=1920:1080:flags=lanczos:param0=3:out_range=limited:out_color_matrix=bt709:out_chroma_loc=left,setsar=1/1,setdar=(1920/1080)*(1/1),colorspace=format=yuv420p:range=tv:primaries=bt709:trc=bt709:space=bt709:fast=0[ref];[main][ref]psnr=eof_action=endall:stats_file='D\\:/Convert/FFMetrics/logs/psnr_logfile-6.txt'" -f null -
Input #0, matroska,webm, from 'F:\Convert\files\[DC] Make Heroine ga Oosugiru - 07_Telegram_HEVC(311).mkv':
  Metadata:
    COMPATIBLE_BRANDS: isomiso2avc1mp41
    MAJOR_BRAND     : isom
    MINOR_VERSION   : 512
    ENCODER         : Lavf61.7.100
  Duration: 00:24:06.79, start: -0.021000, bitrate: 998 kb/s
  Stream #0:0: Video: hevc (Main 10), yuv420p10le(tv, bt709, progressive), 1920x1080 [SAR 1:1 DAR 16:9], 23.98 fps, 23.98 tbr, 1k tbn (default)
      Metadata:
        HANDLER_NAME    : VideoHandler
        VENDOR_ID       : [0][0][0][0]
        ENCODER         : Lavc61.19.100 libx265
        BPS             : 801625
        DURATION        : 00:24:06.569708333
        NUMBER_OF_FRAMES: 34683
        NUMBER_OF_BYTES : 144950780
        _STATISTICS_WRITING_APP: mkvpropedit v94.0 ('Initiate') 64-bit
        _STATISTICS_WRITING_DATE_UTC: 2026-04-09 08:24:13
        _STATISTICS_TAGS: BPS DURATION NUMBER_OF_FRAMES NUMBER_OF_BYTES
  Stream #0:1: Audio: aac (LC), 48000 Hz, stereo, fltp (default)
      Metadata:
        HANDLER_NAME    : SoundHandler
        VENDOR_ID       : [0][0][0][0]
        ENCODER         : Lavc61.19.100 aac
        BPS             : 193194
        DURATION        : 00:24:06.784000000
        NUMBER_OF_FRAMES: 67819
        NUMBER_OF_BYTES : 34938755
        _STATISTICS_WRITING_APP: mkvpropedit v94.0 ('Initiate') 64-bit
        _STATISTICS_WRITING_DATE_UTC: 2026-04-09 08:24:13
        _STATISTICS_TAGS: BPS DURATION NUMBER_OF_FRAMES NUMBER_OF_BYTES
Input #1, mov,mp4,m4a,3gp,3g2,mj2, from 'F:\Convert\files\[DC] Make Heroine ga Oosugiru - 07_Telegram.mp4':
  Metadata:
    major_brand     : isom
    minor_version   : 512
    compatible_brands: isomiso2avc1mp41
    encoder         : Lavf60.16.100
  Duration: 00:24:06.74, start: 0.000000, bitrate: 3764 kb/s
  Stream #1:0[0x1](und): Video: h264 (High) (avc1 / 0x31637661), yuv420p(tv, bt709, progressive), 1920x1080 [SAR 1:1 DAR 16:9], 3616 kb/s, 23.98 fps, 23.98 tbr, 24k tbn (default)
      Metadata:
        handler_name    : VideoHandler
        vendor_id       : [0][0][0][0]
        encoder         : Lavc60.31.102 h264_qsv
  Stream #1:1[0x2](und): Audio: aac (HE-AACv2) (mp4a / 0x6134706D), 48000 Hz, stereo, fltp, 144 kb/s (default)
      Metadata:
        handler_name    : SoundHandler
        vendor_id       : [0][0][0][0]
Stream mapping:
  Stream #0:0 (hevc) -> settb:default
  Stream #1:0 (h264) -> settb:default
  psnr:default -> Stream #0:0 (wrapped_avframe)
  Stream #0:1 -> #0:1 (aac (native) -> pcm_s16le (native))
Output #0, null, to 'pipe:':
  Metadata:
    COMPATIBLE_BRANDS: isomiso2avc1mp41
    MAJOR_BRAND     : isom
    MINOR_VERSION   : 512
    encoder         : Lavf61.7.100
  Stream #0:0: Video: wrapped_avframe, yuv420p10le(tv, bt709, progressive), 1920x1080 [SAR 1:1 DAR 16:9], q=2-31, 200 kb/s, 23.98 fps, 23.98 tbn
      Metadata:
        encoder         : Lavc61.19.100 wrapped_avframe
  Stream #0:1: Audio: pcm_s16le, 48000 Hz, stereo, s16, 1536 kb/s (default)
      Metadata:
        HANDLER_NAME    : SoundHandler
        VENDOR_ID       : [0][0][0][0]
        _STATISTICS_TAGS: BPS DURATION NUMBER_OF_FRAMES NUMBER_OF_BYTES
        BPS             : 193194
        DURATION        : 00:24:06.784000000
        NUMBER_OF_FRAMES: 67819
        NUMBER_OF_BYTES : 34938755
        _STATISTICS_WRITING_APP: mkvpropedit v94.0 ('Initiate') 64-bit
        _STATISTICS_WRITING_DATE_UTC: 2026-04-09 08:24:13
        encoder         : Lavc61.19.100 pcm_s16le
frame=  119 fps=0.0 q=-0.0 size=N/A time=00:00:04.96 bitrate=N/A speed=9.57x    frame=  323 fps=309 q=-0.0 size=N/A time=00:00:13.47 bitrate=N/A speed=12.9x    frame=  527 fps=339 q=-0.0 size=N/A time=00:00:21.98 bitrate=N/A speed=14.1x    frame=  724 fps=350 q=-0.0 size=N/A time=00:00:30.19 bitrate=N/A speed=14.6x    frame=  895 fps=347 q=-0.0 size=N/A time=00:00:37.32 bitrate=N/A speed=14.5x    frame= 1043 fps=336 q=-0.0 size=N/A time=00:00:43.50 bitrate=N/A speed=  14x    frame= 1202 fps=332 q=-0.0 size=N/A time=00:00:50.13 bitrate=N/A speed=13.8x    frame= 1357 fps=328 q=-0.0 size=N/A time=00:00:56.59 bitrate=N/A speed=13.7x    frame= 1516 fps=327 q=-0.0 size=N/A time=00:01:03.22 bitrate=N/A speed=13.6x    frame= 1661 fps=322 q=-0.0 size=N/A time=00:01:09.27 bitrate=N/A speed=13.4x    frame= 1824 fps=321 q=-0.0 size=N/A time=00:01:16.07 bitrate=N/A speed=13.4x    frame= 1986 fps=321 q=-0.0 size=N/A time=00:01:22.83 bitrate=N/A speed=13.4x    frame= 2098 fps=313 q=-0.0 size=N/A time=00:01:27.50 bitrate=N/A speed=13.1x    frame= 2246 fps=310 q=-0.0 size=N/A time=00:01:33.67 bitrate=N/A speed=  13x    frame= 2387 fps=308 q=-0.0 size=N/A time=00:01:39.55 bitrate=N/A speed=12.8x    frame= 2507 fps=303 q=-0.0 size=N/A time=00:01:44.56 bitrate=N/A speed=12.6x    frame= 2658 fps=303 q=-0.0 size=N/A time=00:01:50.86 bitrate=N/A speed=12.6x    frame= 2828 fps=304 q=-0.0 size=N/A time=00:01:57.95 bitrate=N/A speed=12.7x    frame= 2993 fps=305 q=-0.0 size=N/A time=00:02:04.83 bitrate=N/A speed=12.7x    frame= 3185 fps=308 q=-0.0 size=N/A time=00:02:12.84 bitrate=N/A speed=12.9x    frame= 3386 fps=312 q=-0.0 size=N/A time=00:02:21.22 bitrate=N/A speed=  13x    frame= 3577 fps=315 q=-0.0 size=N/A time=00:02:29.19 bitrate=N/A speed=13.1x    frame= 3770 fps=317 q=-0.0 size=N/A time=00:02:37.24 bitrate=N/A speed=13.2x    frame= 3950 fps=318 q=-0.0 size=N/A time=00:02:44.74 bitrate=N/A speed=13.3x    frame= 4138 fps=321 q=-0.0 size=N/A time=00:02:52.58 bitrate=N/A speed=13.4x    frame= 4332 fps=322 q=-0.0 size=N/A time=00:03:00.68 bitrate=N/A speed=13.4x    frame= 4523 fps=324 q=-0.0 size=N/A time=00:03:08.64 bitrate=N/A speed=13.5x    frame= 4701 fps=325 q=-0.0 size=N/A time=00:03:16.07 bitrate=N/A speed=13.6x    frame= 4887 fps=326 q=-0.0 size=N/A time=00:03:23.82 bitrate=N/A speed=13.6x    frame= 5076 fps=328 q=-0.0 size=N/A time=00:03:31.71 bitrate=N/A speed=13.7x    frame= 5262 fps=329 q=-0.0 size=N/A time=00:03:39.46 bitrate=N/A speed=13.7x    frame= 5447 fps=330 q=-0.0 size=N/A time=00:03:47.18 bitrate=N/A speed=13.8x    frame= 5634 fps=331 q=-0.0 size=N/A time=00:03:54.98 bitrate=N/A speed=13.8x    frame= 5815 fps=331 q=-0.0 size=N/A time=00:04:02.53 bitrate=N/A speed=13.8x    frame= 5998 fps=332 q=-0.0 size=N/A time=00:04:10.16 bitrate=N/A speed=13.8x    frame= 6186 fps=333 q=-0.0 size=N/A time=00:04:18.00 bitrate=N/A speed=13.9x    frame= 6367 fps=333 q=-0.0 size=N/A time=00:04:25.55 bitrate=N/A speed=13.9x    frame= 6536 fps=333 q=-0.0 size=N/A time=00:04:32.60 bitrate=N/A speed=13.9x    frame= 6726 fps=334 q=-0.0 size=N/A time=00:04:40.53 bitrate=N/A speed=13.9x    frame= 6896 fps=334 q=-0.0 size=N/A time=00:04:47.62 bitrate=N/A speed=13.9x    frame= 7072 fps=334 q=-0.0 size=N/A time=00:04:54.96 bitrate=N/A speed=13.9x    frame= 7254 fps=335 q=-0.0 size=N/A time=00:05:02.55 bitrate=N/A speed=  14x    frame= 7434 fps=335 q=-0.0 size=N/A time=00:05:10.05 bitrate=N/A speed=  14x    frame= 7601 fps=335 q=-0.0 size=N/A time=00:05:17.02 bitrate=N/A speed=  14x    frame= 7781 fps=335 q=-0.0 size=N/A time=00:05:24.53 bitrate=N/A speed=  14x    frame= 7958 fps=335 q=-0.0 size=N/A time=00:05:31.91 bitrate=N/A speed=  14x    frame= 8140 fps=336 q=-0.0 size=N/A time=00:05:39.50 bitrate=N/A speed=  14x    frame= 8323 fps=336 q=-0.0 size=N/A time=00:05:47.13 bitrate=N/A speed=  14x    frame= 8506 fps=336 q=-0.0 size=N/A time=00:05:54.77 bitrate=N/A speed=  14x    frame= 8694 fps=337 q=-0.0 size=N/A time=00:06:02.61 bitrate=N/A speed=  14x    frame= 8871 fps=337 q=-0.0 size=N/A time=00:06:09.99 bitrate=N/A speed=14.1x    frame= 9059 fps=338 q=-0.0 size=N/A time=00:06:17.83 bitrate=N/A speed=14.1x    frame= 9251 fps=338 q=-0.0 size=N/A time=00:06:25.84 bitrate=N/A speed=14.1x    frame= 9436 fps=339 q=-0.0 size=N/A time=00:06:33.55 bitrate=N/A speed=14.1x    frame= 9623 fps=339 q=-0.0 size=N/A time=00:06:41.35 bitrate=N/A speed=14.1x    frame= 9803 fps=339 q=-0.0 size=N/A time=00:06:48.86 bitrate=N/A speed=14.1x    frame= 9989 fps=340 q=-0.0 size=N/A time=00:06:56.62 bitrate=N/A speed=14.2x    frame=10167 fps=340 q=-0.0 size=N/A time=00:07:04.04 bitrate=N/A speed=14.2x    frame=10350 fps=340 q=-0.0 size=N/A time=00:07:11.68 bitrate=N/A speed=14.2x    frame=10541 fps=340 q=-0.0 size=N/A time=00:07:19.64 bitrate=N/A speed=14.2x    frame=10724 fps=341 q=-0.0 size=N/A time=00:07:27.28 bitrate=N/A speed=14.2x    frame=10915 fps=341 q=-0.0 size=N/A time=00:07:35.24 bitrate=N/A speed=14.2x    frame=11086 fps=341 q=-0.0 size=N/A time=00:07:42.37 bitrate=N/A speed=14.2x    frame=11262 fps=341 q=-0.0 size=N/A time=00:07:49.71 bitrate=N/A speed=14.2x    frame=11451 fps=341 q=-0.0 size=N/A time=00:07:57.60 bitrate=N/A speed=14.2x    frame=11642 fps=342 q=-0.0 size=N/A time=00:08:05.56 bitrate=N/A speed=14.3x    frame=11835 fps=342 q=-0.0 size=N/A time=00:08:13.61 bitrate=N/A speed=14.3x    frame=12027 fps=343 q=-0.0 size=N/A time=00:08:21.62 bitrate=N/A speed=14.3x    frame=12222 fps=343 q=-0.0 size=N/A time=00:08:29.75 bitrate=N/A speed=14.3x    frame=12407 fps=344 q=-0.0 size=N/A time=00:08:37.47 bitrate=N/A speed=14.3x    frame=12608 fps=344 q=-0.0 size=N/A time=00:08:45.85 bitrate=N/A speed=14.4x    frame=12797 fps=344 q=-0.0 size=N/A time=00:08:53.74 bitrate=N/A speed=14.4x    frame=12984 fps=345 q=-0.0 size=N/A time=00:09:01.54 bitrate=N/A speed=14.4x    frame=13170 fps=345 q=-0.0 size=N/A time=00:09:09.29 bitrate=N/A speed=14.4x    frame=13362 fps=345 q=-0.0 size=N/A time=00:09:17.30 bitrate=N/A speed=14.4x    frame=13546 fps=345 q=-0.0 size=N/A time=00:09:24.98 bitrate=N/A speed=14.4x    frame=13736 fps=346 q=-0.0 size=N/A time=00:09:32.90 bitrate=N/A speed=14.4x    frame=13930 fps=346 q=-0.0 size=N/A time=00:09:40.99 bitrate=N/A speed=14.4x    frame=14094 fps=346 q=-0.0 size=N/A time=00:09:47.83 bitrate=N/A speed=14.4x    frame=14268 fps=346 q=-0.0 size=N/A time=00:09:55.09 bitrate=N/A speed=14.4x    frame=14457 fps=346 q=-0.0 size=N/A time=00:10:02.97 bitrate=N/A speed=14.4x    frame=14638 fps=346 q=-0.0 size=N/A time=00:10:10.52 bitrate=N/A speed=14.4x    frame=14831 fps=346 q=-0.0 size=N/A time=00:10:18.57 bitrate=N/A speed=14.4x    frame=15010 fps=346 q=-0.0 size=N/A time=00:10:26.04 bitrate=N/A speed=14.4x    frame=15168 fps=346 q=-0.0 size=N/A time=00:10:32.63 bitrate=N/A speed=14.4x    frame=15353 fps=346 q=-0.0 size=N/A time=00:10:40.34 bitrate=N/A speed=14.4x    frame=15542 fps=346 q=-0.0 size=N/A time=00:10:48.23 bitrate=N/A speed=14.4x    frame=15742 fps=347 q=-0.0 size=N/A time=00:10:56.57 bitrate=N/A speed=14.5x    frame=15934 fps=347 q=-0.0 size=N/A time=00:11:04.58 bitrate=N/A speed=14.5x    frame=16122 fps=347 q=-0.0 size=N/A time=00:11:12.42 bitrate=N/A speed=14.5x    frame=16313 fps=348 q=-0.0 size=N/A time=00:11:20.38 bitrate=N/A speed=14.5x    frame=16500 fps=348 q=-0.0 size=N/A time=00:11:28.18 bitrate=N/A speed=14.5x    frame=16684 fps=348 q=-0.0 size=N/A time=00:11:35.86 bitrate=N/A speed=14.5x    frame=16880 fps=348 q=-0.0 size=N/A time=00:11:44.03 bitrate=N/A speed=14.5x    frame=17070 fps=348 q=-0.0 size=N/A time=00:11:51.96 bitrate=N/A speed=14.5x    frame=17272 fps=349 q=-0.0 size=N/A time=00:12:00.38 bitrate=N/A speed=14.5x    frame=17464 fps=349 q=-0.0 size=N/A time=00:12:08.39 bitrate=N/A speed=14.6x    frame=17645 fps=349 q=-0.0 size=N/A time=00:12:15.94 bitrate=N/A speed=14.6x    frame=17837 fps=349 q=-0.0 size=N/A time=00:12:23.95 bitrate=N/A speed=14.6x    frame=18039 fps=350 q=-0.0 size=N/A time=00:12:32.37 bitrate=N/A speed=14.6x    frame=18221 fps=350 q=-0.0 size=N/A time=00:12:39.96 bitrate=N/A speed=14.6x    frame=18406 fps=350 q=-0.0 size=N/A time=00:12:47.68 bitrate=N/A speed=14.6x    frame=18592 fps=350 q=-0.0 size=N/A time=00:12:55.44 bitrate=N/A speed=14.6x    frame=18789 fps=350 q=-0.0 size=N/A time=00:13:03.65 bitrate=N/A speed=14.6x    frame=18986 fps=351 q=-0.0 size=N/A time=00:13:11.87 bitrate=N/A speed=14.6x    frame=19172 fps=351 q=-0.0 size=N/A time=00:13:19.63 bitrate=N/A speed=14.6x    frame=19377 fps=351 q=-0.0 size=N/A time=00:13:28.18 bitrate=N/A speed=14.6x    frame=19572 fps=351 q=-0.0 size=N/A time=00:13:36.31 bitrate=N/A speed=14.7x    frame=19765 fps=352 q=-0.0 size=N/A time=00:13:44.36 bitrate=N/A speed=14.7x    frame=19954 fps=352 q=-0.0 size=N/A time=00:13:52.24 bitrate=N/A speed=14.7x    frame=20145 fps=352 q=-0.0 size=N/A time=00:14:00.21 bitrate=N/A speed=14.7x    frame=20334 fps=352 q=-0.0 size=N/A time=00:14:08.09 bitrate=N/A speed=14.7x    frame=20514 fps=352 q=-0.0 size=N/A time=00:14:15.60 bitrate=N/A speed=14.7x    frame=20687 fps=352 q=-0.0 size=N/A time=00:14:22.82 bitrate=N/A speed=14.7x    frame=20881 fps=352 q=-0.0 size=N/A time=00:14:30.91 bitrate=N/A speed=14.7x    frame=21081 fps=352 q=-0.0 size=N/A time=00:14:39.25 bitrate=N/A speed=14.7x    frame=21276 fps=352 q=-0.0 size=N/A time=00:14:47.38 bitrate=N/A speed=14.7x    frame=21476 fps=353 q=-0.0 size=N/A time=00:14:55.72 bitrate=N/A speed=14.7x    frame=21670 fps=353 q=-0.0 size=N/A time=00:15:03.81 bitrate=N/A speed=14.7x    frame=21846 fps=353 q=-0.0 size=N/A time=00:15:11.16 bitrate=N/A speed=14.7x    frame=22041 fps=353 q=-0.0 size=N/A time=00:15:19.29 bitrate=N/A speed=14.7x    frame=22222 fps=353 q=-0.0 size=N/A time=00:15:26.84 bitrate=N/A speed=14.7x    frame=22413 fps=353 q=-0.0 size=N/A time=00:15:34.80 bitrate=N/A speed=14.7x    frame=22610 fps=353 q=-0.0 size=N/A time=00:15:43.02 bitrate=N/A speed=14.7x    frame=22787 fps=353 q=-0.0 size=N/A time=00:15:50.40 bitrate=N/A speed=14.7x    frame=22962 fps=353 q=-0.0 size=N/A time=00:15:57.70 bitrate=N/A speed=14.7x    frame=23155 fps=353 q=-0.0 size=N/A time=00:16:05.75 bitrate=N/A speed=14.7x    frame=23346 fps=354 q=-0.0 size=N/A time=00:16:13.72 bitrate=N/A speed=14.7x    frame=23539 fps=354 q=-0.0 size=N/A time=00:16:21.77 bitrate=N/A speed=14.8x    frame=23741 fps=354 q=-0.0 size=N/A time=00:16:30.19 bitrate=N/A speed=14.8x    frame=23938 fps=354 q=-0.0 size=N/A time=00:16:38.41 bitrate=N/A speed=14.8x    frame=24130 fps=354 q=-0.0 size=N/A time=00:16:46.42 bitrate=N/A speed=14.8x    frame=24316 fps=354 q=-0.0 size=N/A time=00:16:54.17 bitrate=N/A speed=14.8x    frame=24503 fps=354 q=-0.0 size=N/A time=00:17:01.97 bitrate=N/A speed=14.8x    frame=24708 fps=355 q=-0.0 size=N/A time=00:17:10.52 bitrate=N/A speed=14.8x    frame=24897 fps=355 q=-0.0 size=N/A time=00:17:18.41 bitrate=N/A speed=14.8x    frame=25090 fps=355 q=-0.0 size=N/A time=00:17:26.46 bitrate=N/A speed=14.8x    frame=25284 fps=355 q=-0.0 size=N/A time=00:17:34.55 bitrate=N/A speed=14.8x    frame=25483 fps=355 q=-0.0 size=N/A time=00:17:42.85 bitrate=N/A speed=14.8x    frame=25676 fps=355 q=-0.0 size=N/A time=00:17:50.90 bitrate=N/A speed=14.8x    frame=25867 fps=356 q=-0.0 size=N/A time=00:17:58.86 bitrate=N/A speed=14.8x    frame=26063 fps=356 q=-0.0 size=N/A time=00:18:07.04 bitrate=N/A speed=14.8x    frame=26255 fps=356 q=-0.0 size=N/A time=00:18:15.05 bitrate=N/A speed=14.8x    frame=26450 fps=356 q=-0.0 size=N/A time=00:18:23.18 bitrate=N/A speed=14.9x    frame=26654 fps=356 q=-0.0 size=N/A time=00:18:31.69 bitrate=N/A speed=14.9x    frame=26843 fps=356 q=-0.0 size=N/A time=00:18:39.57 bitrate=N/A speed=14.9x    frame=27018 fps=356 q=-0.0 size=N/A time=00:18:46.87 bitrate=N/A speed=14.9x    frame=27192 fps=356 q=-0.0 size=N/A time=00:18:54.13 bitrate=N/A speed=14.9x    frame=27380 fps=356 q=-0.0 size=N/A time=00:19:01.97 bitrate=N/A speed=14.9x    frame=27561 fps=356 q=-0.0 size=N/A time=00:19:09.52 bitrate=N/A speed=14.9x    frame=27736 fps=356 q=-0.0 size=N/A time=00:19:16.82 bitrate=N/A speed=14.9x    frame=27933 fps=356 q=-0.0 size=N/A time=00:19:25.03 bitrate=N/A speed=14.9x    frame=28121 fps=356 q=-0.0 size=N/A time=00:19:32.88 bitrate=N/A speed=14.9x    frame=28302 fps=356 q=-0.0 size=N/A time=00:19:40.42 bitrate=N/A speed=14.9x    frame=28501 fps=356 q=-0.0 size=N/A time=00:19:48.72 bitrate=N/A speed=14.9x    frame=28688 fps=356 q=-0.0 size=N/A time=00:19:56.52 bitrate=N/A speed=14.9x    frame=28851 fps=356 q=-0.0 size=N/A time=00:20:03.32 bitrate=N/A speed=14.9x    frame=29019 fps=356 q=-0.0 size=N/A time=00:20:10.33 bitrate=N/A speed=14.8x    frame=29196 fps=356 q=-0.0 size=N/A time=00:20:17.71 bitrate=N/A speed=14.8x    frame=29367 fps=356 q=-0.0 size=N/A time=00:20:24.84 bitrate=N/A speed=14.8x    frame=29524 fps=355 q=-0.0 size=N/A time=00:20:31.39 bitrate=N/A speed=14.8x    frame=29700 fps=355 q=-0.0 size=N/A time=00:20:38.73 bitrate=N/A speed=14.8x    frame=29864 fps=355 q=-0.0 size=N/A time=00:20:45.57 bitrate=N/A speed=14.8x    frame=30021 fps=355 q=-0.0 size=N/A time=00:20:52.12 bitrate=N/A speed=14.8x    frame=30186 fps=355 q=-0.0 size=N/A time=00:20:59.00 bitrate=N/A speed=14.8x    frame=30379 fps=355 q=-0.0 size=N/A time=00:21:07.05 bitrate=N/A speed=14.8x    frame=30574 fps=355 q=-0.0 size=N/A time=00:21:15.19 bitrate=N/A speed=14.8x    frame=30765 fps=355 q=-0.0 size=N/A time=00:21:23.15 bitrate=N/A speed=14.8x    frame=30961 fps=355 q=-0.0 size=N/A time=00:21:31.33 bitrate=N/A speed=14.8x    frame=31147 fps=355 q=-0.0 size=N/A time=00:21:39.08 bitrate=N/A speed=14.8x    frame=31335 fps=355 q=-0.0 size=N/A time=00:21:46.93 bitrate=N/A speed=14.8x    frame=31508 fps=355 q=-0.0 size=N/A time=00:21:54.14 bitrate=N/A speed=14.8x    frame=31692 fps=355 q=-0.0 size=N/A time=00:22:01.82 bitrate=N/A speed=14.8x    frame=31863 fps=355 q=-0.0 size=N/A time=00:22:08.95 bitrate=N/A speed=14.8x    frame=32043 fps=355 q=-0.0 size=N/A time=00:22:16.46 bitrate=N/A speed=14.8x    frame=32232 fps=355 q=-0.0 size=N/A time=00:22:24.34 bitrate=N/A speed=14.8x    frame=32417 fps=355 q=-0.0 size=N/A time=00:22:32.05 bitrate=N/A speed=14.8x    frame=32609 fps=355 q=-0.0 size=N/A time=00:22:40.06 bitrate=N/A speed=14.8x    frame=32744 fps=354 q=-0.0 size=N/A time=00:22:45.69 bitrate=N/A speed=14.8x    frame=32884 fps=354 q=-0.0 size=N/A time=00:22:51.53 bitrate=N/A speed=14.8x    frame=33069 fps=354 q=-0.0 size=N/A time=00:22:59.25 bitrate=N/A speed=14.8x    frame=33250 fps=354 q=-0.0 size=N/A time=00:23:06.80 bitrate=N/A speed=14.8x    frame=33401 fps=354 q=-0.0 size=N/A time=00:23:13.10 bitrate=N/A speed=14.8x    frame=33558 fps=353 q=-0.0 size=N/A time=00:23:19.64 bitrate=N/A speed=14.7x    frame=33706 fps=353 q=-0.0 size=N/A time=00:23:25.82 bitrate=N/A speed=14.7x    frame=33830 fps=352 q=-0.0 size=N/A time=00:23:30.99 bitrate=N/A speed=14.7x    frame=33958 fps=352 q=-0.0 size=N/A time=00:23:36.33 bitrate=N/A speed=14.7x    frame=34123 fps=352 q=-0.0 size=N/A time=00:23:43.21 bitrate=N/A speed=14.7x    frame=34275 fps=351 q=-0.0 size=N/A time=00:23:49.55 bitrate=N/A speed=14.7x    frame=34404 fps=351 q=-0.0 size=N/A time=00:23:54.93 bitrate=N/A speed=14.6x    frame=34564 fps=351 q=-0.0 size=N/A time=00:24:01.60 bitrate=N/A speed=14.6x    [Parsed_psnr_16 @ 00000159e9f86880] PSNR y:49.080610 u:50.354853 v:50.404207 average:49.471929 min:38.045602 max:inf
[out#0/null @ 00000159dd26dec0] video:14903KiB audio:271276KiB subtitle:0KiB other streams:0KiB global headers:0KiB muxing overhead: unknown
frame=34683 fps=351 q=-0.0 Lsize=N/A time=00:24:06.57 bitrate=N/A speed=14.6x    
